<?xml version="1.0"?>
<svg width="640" height="480" xmlns="http://www.w3.org/2000/svg" xmlns:svg="http://www.w3.org/2000/svg" xmlns:xlink="http://www.w3.org/1999/xlink">
 <!-- Created with SVG-edit - https://github.com/SVG-Edit/svgedit-->
 <g class="layer">
  <title>Layer 1</title>
  <path d="m203.5,135.5c-2.057327,0 -3.083328,0 -3.870667,0c-0.418671,0 -1.750504,0 -2.677505,0c-0.931,0 -1.390488,0 -2.282501,0c-1.226486,0 -2.307999,0 -2.983994,0c-0.667999,0 -2.070663,0 -2.821335,0c-0.774658,0 -1.565338,0 -2.763672,0c-0.791321,0 -1.558655,0 -2.285995,0c-1.271667,0 -2.06366,0 -2.819672,0c-1.137161,0 -1.795486,0 -2.473831,0c-0.967499,0 -2.158325,-0.001373 -2.821655,0c-0.967178,0.001999 -1.831772,-0.195145 -2.865845,0.5c-0.645721,0.434082 -0.806854,1.077774 -1.301331,1.904007c-0.546783,0.913635 -1.032227,1.520096 -1.636169,2.075165c-0.648224,0.595764 -1.025131,0.888046 -2.360001,1.599335c-0.479385,0.255432 -1.52095,0.689377 -2.056656,0.900665c-1.075302,0.424118 -1.620392,0.599884 -3.136337,1.220993c-0.476059,0.195053 -1.383652,0.606064 -1.822006,0.820663c-0.873352,0.427536 -2.188736,1.143646 -2.641998,1.400513c-0.929565,0.52681 -1.395386,0.800812 -2.31749,1.353333c-0.452438,0.271103 -1.729126,1.0569 -2.118179,1.303833c-0.726425,0.46106 -1.69458,1.098923 -2.255157,1.520157c-0.779022,0.585388 -1.476059,1.201141 -1.877335,1.67334c-0.864822,1.01767 -1.223526,1.692902 -1.610672,2.41066c-0.413879,0.767334 -0.614868,1.176743 -1.199997,2.484009c-0.409119,0.914047 -0.604233,1.387054 -0.979172,2.354156c-0.189255,0.488144 -0.553452,1.474945 -0.854156,2.479172c-0.297882,0.994812 -0.424271,1.495956 -0.625,2.5c-0.199203,0.996353 -0.283112,1.497177 -0.420166,3c-0.045532,0.499237 -0.09201,1.499863 -0.11084,2.5c-0.009415,0.499954 -0.010666,2 -0.010666,2.499664c0,0.991333 0,1.958664 0,2.428329c0,0.901337 0,2.129837 0,2.880173c0,0.754333 0.000214,1.568665 0,3.025162c-0.000092,0.574005 0.003571,1.192047 -0.010666,2.536011c-0.007568,0.71402 -0.021988,1.448105 -0.046494,2.195999c-0.02478,0.756119 -0.105072,2.268326 -0.164169,3.012833c-0.058289,0.734192 -0.129196,1.455887 -0.20401,2.16449c-0.145187,1.375122 -0.225662,2.038132 -0.290665,2.685333c-0.124344,1.237991 -0.203415,2.402466 -0.226837,2.962173c-0.045563,1.088654 -0.050507,1.624466 -0.055832,2.692505c-0.005402,1.083984 -0.001328,2.201324 -0.001328,2.769989c0,0.572678 0,1.722 0,2.294678c0,1.685989 0,2.231323 0,3.299988c0,0.527344 0,1.578003 0,2.105347c0,1.613998 0,2.168488 0,2.729996c0,1.132004 0,1.696503 0,2.807495c0,0.540497 0,2.066833 0,2.995499c0,0.442337 -0.000061,1.292999 0,2.111664c0.000092,1.202835 -0.005051,2.007416 0.020828,2.823502c0.026535,0.8367 0.135818,2.147186 0.264511,3.065842c0.06665,0.475739 0.234161,1.455246 0.325333,1.959991c0.187927,1.040512 0.383469,2.121094 0.593323,3.236008c0.106537,0.566055 0.34906,1.699036 0.503998,2.255997c0.15416,0.554184 0.77417,2.138031 1.056335,2.619003c0.567566,0.967468 0.933044,1.412949 1.277344,1.884003c0.714767,0.977921 1.109009,1.477341 1.791656,2.625c0.362274,0.609039 0.688202,1.268127 1.005005,1.952988c0.323425,0.699173 0.625,1.420013 0.914993,2.151001c0.290009,0.731033 0.56662,1.461639 1.325333,3.586166c0.239426,0.670425 0.466995,1.324951 0.696014,1.96051c0.223679,0.620758 0.431625,1.232971 0.909332,2.394669c0.464294,1.129059 0.722122,1.673828 1.268661,2.717331c0.26532,0.506577 0.813843,1.457138 1.094666,1.894669c0.764038,1.190369 1.249268,1.839417 1.738007,2.378662c0.695953,0.767853 1.542892,1.470337 2.189331,1.984009c0.350433,0.278473 1.123718,0.86322 2.005829,1.474976c0.475098,0.329498 1.51741,1.008362 2.083664,1.359344c0.587021,0.363861 1.819794,1.087891 2.456665,1.437347c0.636505,0.349243 1.272964,0.685822 1.912506,0.987c1.223434,0.576172 2.390671,1.005554 2.943329,1.17865c0.527588,0.165253 1.525345,0.43396 2.449997,0.58667c1.225143,0.202362 1.958496,0.243347 2.631668,0.268494c0.938553,0.035065 2.141678,0.020844 2.741669,0.020844c0.900009,0 2.100006,0 2.699997,0c0.900009,0 2.100006,0 2.700012,0c0.899994,0 1.799988,0 2.699829,0c0.889496,0 1.742996,0 2.778992,0c0.706512,0 1.690506,0 2.564667,0c1.060501,0 1.460678,0 2.337006,0c1.519501,0 2.083832,0 2.674164,0c1.242676,0 1.887009,0 2.541336,0c0.660339,0 2.637329,0.001007 3.282166,-0.000336c0.633835,-0.001312 1.25618,0.00647 2.459335,-0.041321c0.58017,-0.023041 1.698624,-0.083649 2.729172,-0.291687c0.972198,-0.196259 1.432724,-0.352478 2.291656,-0.729156c0.847458,-0.371643 2.045654,-1.098022 2.441345,-1.359161c0.799576,-0.52771 1.566376,-1.11087 1.928329,-1.425018c0.717056,-0.622314 1.638077,-1.668579 1.903992,-2.039978c0.535217,-0.747528 1.010712,-1.564941 1.536011,-2.399994c0.556931,-0.885345 0.874237,-1.33548 1.537323,-2.27951c0.345108,-0.491333 0.712784,-0.98465 1.389343,-2.052673c0.34671,-0.547333 0.983017,-1.709366 1.261993,-2.323669c0.281204,-0.619202 0.758438,-1.894775 0.960007,-2.536667c0.198334,-0.631592 0.404449,-1.249084 0.75,-3.020828c0.103928,-0.532898 0.230042,-1.523376 0.3125,-2.416672c0.074966,-0.812134 0.173462,-1.91922 0.304825,-2.599335c0.127747,-0.661438 0.398163,-1.63089 0.549332,-2.650665c0.10585,-0.714127 0.144089,-1.458374 0.16217,-2.580658c0.017487,-1.085861 0.004501,-1.767334 0.004501,-2.731842c0,-0.616333 0,-1.820496 0,-2.699493c0,-0.807007 0.00177,-1.852005 0,-2.569504c-0.002258,-0.909012 0.02211,-1.677887 -0.285339,-2.651825c-0.259979,-0.823563 -0.803009,-1.806671 -1.136002,-2.421341c-0.379486,-0.700485 -0.90657,-1.515747 -1.347992,-2.147995c-0.486069,-0.696182 -1.018295,-1.414337 -1.548004,-2.14801c-0.764313,-1.058609 -1.225784,-1.717773 -1.640991,-2.340988c-0.38446,-0.577057 -1.00589,-1.628708 -1.416336,-2.294998c-0.365311,-0.593018 -1.068726,-1.431412 -1.800003,-1.800003c-0.900391,-0.453827 -1.709335,-0.445999 -2.650665,-0.446671c-1.007996,-0.000717 -1.704681,0.021362 -2.717499,-0.221329c-0.726349,-0.174057 -1.497833,-0.482864 -2.535675,-0.657166c-0.893753,-0.150101 -1.520157,-0.120834 -2.530487,-0.121506c-0.905334,-0.000595 -2.033844,0 -2.700836,0c-0.710999,0 -1.442001,0 -2.8685,0c-0.660004,0 -1.574997,0 -2.654999,0l-0.709503,0l-0.852661,0" fill="none" id="svg_12" stroke="#000000" stroke-width="5"/>
  <path d="m240.5,260.5c-1.699997,0 -2.636002,0 -3.483994,0c-0.863342,0 -1.890671,0 -2.837006,0c-0.781662,0 -0.679001,0 0.121002,0c0.835999,0 1.852676,-0.003693 2.547333,0c1.006042,0.005341 1.631836,0.520844 1.652664,1.399994l0.004501,0.895508l0.431503,0.668488l0.863998,0.036011" fill="none" id="svg_13" stroke="#000000" stroke-width="5"/>
  <path d="m259.5,266.5c-0.942841,-2.027832 -0.988068,-2.604034 -0.998657,-3.658661c-0.008453,-0.841309 -0.001343,-1.793335 -0.001343,-2.817352c0,-0.523987 0,-1.565979 0,-2.071991c0,-1.387482 0,-2.180496 0,-3.220001c0,-0.627991 0.03009,-1.835297 -0.041656,-2.752823c-0.049927,-0.638519 -0.275726,-1.651245 -0.526337,-2.364502c-0.2659,-0.756775 -0.61261,-1.514832 -0.864014,-2.31601c-0.371826,-1.184967 -0.473602,-1.997101 -0.526337,-2.79866c-0.052551,-0.798935 -0.033844,-2.000061 -0.044312,-2.802673c-0.010681,-0.818802 -0.043304,-1.672577 -0.167999,-2.567993c-0.134674,-0.96698 -0.395355,-2.001251 -0.543686,-2.543671c-0.152863,-0.55899 -0.505157,-1.707581 -0.694656,-2.294662c-0.191818,-0.594269 -0.790833,-2.390503 -0.98967,-2.987c-0.196838,-0.5905 -0.390671,-1.171997 -0.765335,-2.296005c-0.178833,-0.536499 -0.670746,-2.007523 -0.949326,-2.849335c-0.241226,-0.728928 -0.51828,-1.335526 -0.765167,-2.515656c-0.172455,-0.824326 -0.166565,-1.738785 -0.546844,-2.564346c-0.417999,-0.90744 -0.509857,-1.599823 -0.636002,-2.435989c-0.095444,-0.63269 -0.369278,-1.668854 -0.648499,-2.404343c-0.298035,-0.785034 -0.671371,-1.589523 -1.123489,-2.904999c-0.155167,-0.451462 -0.420868,-1.386993 -0.625,-2.354156c-0.103043,-0.488205 -0.274094,-1.478394 -0.375,-2.479172c-0.100372,-0.99559 -0.134033,-1.978577 -0.145844,-2.458328c-0.022827,-0.9272 -0.020828,-2.208344 -0.020828,-2.968338c0,-0.990005 0,-1.800003 0,-2.768005c0,-0.773331 0,-1.815155 0,-2.590668c0,-1.047989 0.017578,-1.786926 -0.072006,-2.619995c-0.076141,-0.708115 -0.369171,-2.123322 -0.495987,-2.70134c-0.135742,-0.618683 -0.284668,-1.26622 -0.432007,-1.934998c-0.298706,-1.355774 -0.450287,-2.021744 -0.666672,-3.291656c-0.098679,-0.579147 -0.236969,-1.632263 -0.291656,-2.5625c-0.048691,-0.828217 -0.041672,-1.9375 -0.041672,-2.622833c0,-1.02301 0,-1.748337 0,-2.981339c0,-0.46434 0,-1.466995 0,-1.99733c0,-1.098663 0,-1.658997 0,-3.335999c0,-0.54451 0,-1.591507 0,-2.088013c0,-0.923996 0,-1.735992 0,-3.163498c0,-0.768661 0,-1.679825 0,-2.633835c0,-0.749329 0,-1.570663 0,-2.447998c0,-0.916 0,-1.847992 0,-2.771988c0,-0.451508 0,-1.728012 0,-2.493347c0,-1.067993 -0.0009,-1.773331 0,-2.901321c0.000671,-0.834671 0.001984,-1.717621 0.035995,-2.616013c0.016861,-0.445511 0.097672,-1.723267 0.250671,-2.479996c0.210083,-1.039093 0.431015,-1.683029 1.034836,-2.870834c0.313263,-0.616241 0.702393,-1.218826 1.082993,-1.856995c0.600357,-1.006638 0.997162,-1.725937 1.395508,-2.46817c0.401672,-0.748428 0.786713,-1.498276 1.399994,-2.553329c0.391586,-0.673645 0.805084,-1.318253 1.199997,-1.973999c0.607849,-1.009323 0.999893,-1.728012 1.389343,-2.45134c0.375839,-0.698044 0.664688,-1.380417 1.328003,-2.342667c0.500168,-0.725571 1.215988,-1.386658 1.892487,-2.063156c0.511017,-0.511002 1.040771,-1.043243 1.823517,-1.823502c0.708374,-0.706116 1.117828,-1.157913 1.76532,-1.680008c0.962372,-0.776001 1.574768,-1.137512 2.601501,-1.365166c0.80722,-0.178978 1.485168,-0.120827 2.482513,-0.121498c0.796478,-0.000534 1.983978,0 2.796478,0c1.004852,0 1.695496,0 2.635498,0c0.985352,0 1.885345,0 2.642517,0c0.917999,0 1.597504,-0.000999 2.909485,0c0.876007,0.000671 1.366638,-0.001465 2.4375,0.020836c0.574585,0.011963 1.172638,0.011276 3.0625,0.145828c0.655334,0.046654 1.318329,0.115097 1.986023,0.204002c0.673737,0.089706 1.355194,0.178467 2.694641,0.505333c0.673065,0.164253 1.991608,0.610771 2.631012,0.888496c0.640869,0.278366 1.2742,0.58252 2.480011,1.298004c0.602356,0.357422 1.184204,0.744904 1.755005,1.141495c1.128418,0.784012 1.668671,1.189972 2.711487,1.982498c0.498505,0.37886 0.974121,0.747116 1.84201,1.442001c0.391876,0.313751 1.660065,1.248962 2.128998,1.809006c0.65567,0.783066 0.514221,1.791458 0.774811,2.533173c0.299438,0.852295 0.72699,1.368469 1.08667,2.102661c0.449554,0.917648 0.915466,2.09108 1.164001,2.776993c0.269318,0.743286 0.535797,1.5439 0.804016,2.391006c0.279327,0.882202 0.552979,1.796265 0.821991,2.733002c0.2724,0.948593 0.789398,2.858124 1.031006,3.803833c0.238342,0.932983 0.463196,1.854919 0.674988,2.764496c0.208191,0.894104 0.403107,1.774002 0.585022,2.638504c0.17804,0.846191 0.497955,2.48497 0.639984,3.275162c0.137878,0.767151 0.262787,1.510895 0.375,2.229004c0.107697,0.689255 0.20282,1.348969 0.285004,1.977005c0.077667,0.593323 0.19812,1.670715 0.240173,2.151993c0.039032,0.446762 0.075623,0.865555 0.100647,1.643997c0.035553,1.106613 0.020844,2.284668 0.020844,3.156006c0,0.457672 0,1.406998 0,2.388336c0,0.99733 0,1.998657 0,2.501831c0,1.016327 0,1.531494 0,2.580826c0,1.081345 0,2.20401 0,2.785339c0,0.597336 0,1.848007 0,2.505341c0,0.68132 0.000946,2.123993 -0.000336,2.888824c-0.001343,0.793839 -0.004974,1.615723 -0.020996,2.464508c-0.01651,0.874908 -0.044373,1.774963 -0.092987,2.698486c-0.049866,0.947205 -0.212036,2.906281 -0.328339,3.914673c-0.118225,1.025009 -0.260712,2.058609 -0.40802,3.097504c-0.147369,1.039444 -0.301575,2.072922 -0.444,3.097504c-0.140228,1.008759 -0.379669,2.961777 -0.462311,3.897324c-0.079773,0.903214 -0.134033,1.775406 -0.171021,2.614502c-0.035461,0.804626 -0.053467,1.574615 -0.062988,2.308502c-0.009033,0.696808 -0.008453,1.975494 -0.009155,2.556839c-0.000671,0.549332 -0.002258,1.074692 -0.010529,1.584c-0.008118,0.501358 -0.022247,1.002792 -0.046478,1.511993c-0.024994,0.525497 -0.106689,1.656265 -0.164337,2.274994c-0.060883,0.65329 -0.132751,1.334335 -0.214508,2.037003c-0.168579,1.448715 -0.266235,2.181305 -0.365326,2.912003c-0.194275,1.432617 -0.298462,2.122498 -0.397339,2.796005c-0.096802,0.6595 -0.283325,1.948135 -0.365326,2.584c-0.081665,0.633148 -0.179108,1.265793 -0.314514,3.205826c-0.045807,0.65625 -0.068268,1.309555 -0.08548,1.951508c-0.032806,1.222473 -0.033752,1.78949 -0.036011,3.227997c-0.001068,0.688004 0,1.673004 0,2.600006c0,0.899994 0,1.799988 0,2.704498c0,0.862167 0,1.695496 0,2.673996c0,0.82016 -0.00058,1.721497 0,2.542328c0.000671,0.964508 -0.041565,1.707565 0.221344,2.679001c0.216217,0.79892 0.657166,1.778671 0.77417,2.495667l0.004486,0.90451l0.020844,0.899994" fill="none" id="svg_14" stroke="#000000" stroke-width="5"/>
  <path d="m251.5,196.5c0.886673,0 1.846664,0 2.686661,0c1.001343,0 1.570679,0 2.532181,0c1.114502,0 1.949158,0 2.831818,0c0.449341,0 1.343994,0 2.615997,0c0.761353,0 1.770844,0 2.645355,0c1.001312,0 1.841309,0 2.803986,0c0.768005,0 1.709351,0 2.717346,0c0.755981,0 1.730652,0 2.602661,0c0.872986,0 1.897339,0 2.569336,0c0.743988,0 1.851654,0 2.685669,0c0.908997,0 1.829834,0 2.792999,0c0.690643,0 1.763336,0 2.682648,0c0.833344,0 1.666687,0 2.585999,0c0.900024,0 1.594666,0 2.622009,0c0.946655,0 1.799988,0 2.73999,0c0.885345,0 1.685333,0 2.585358,0c0.899994,0 1.799988,0 2.699982,0c0.899994,0 1.800018,0 2.700012,0c0.899994,0 1.699982,0 2.600006,0c0.899994,0 1.799988,0 2.699982,0l0.899994,0" fill="none" id="svg_15" stroke="#000000" stroke-width="5"/>
  <path d="m320.5,252.5c-1,-1 -1.948578,-1.081238 -2.479156,-0.458328c-0.674713,0.79213 -0.515503,1.704956 -0.520844,2.625c-0.004578,0.790482 0,1.643997 0,2.833328c0,0.597321 -0.006653,1.458374 0,2.22934c0.010437,1.208282 0.57666,2.066467 1.389343,1.759979c0.742554,-0.280029 0.610657,-1.473328 0.610657,-2.336639c0,-0.900024 0.000061,-1.819336 0,-2.652679c-0.000092,-0.978333 -0.154297,-1.91626 -1,-2c-0.796082,-0.078827 -1.700012,0 -2.600006,0c-0.928009,0 -0.426666,0 0.605347,0l0.743988,0" fill="none" id="svg_16" stroke="#000000" stroke-width="5"/>
  <path d="m389.5,124.5c-1.700012,0 -2.600006,0 -3.5,0c-0.899994,0 -1.803284,0.075684 -2.701324,-0.001335c-0.9758,-0.083687 -1.591248,-0.516823 -2.632019,-0.832001c-0.73877,-0.223724 -1.666656,-0.166664 -2.577332,-0.166664c-0.910645,0 -1.763977,0 -2.703979,0c-0.885345,0 -1.685333,0 -2.585358,0c-0.899994,0 -1.799988,0 -2.699982,0c-0.899994,0 -1.800018,0 -2.700012,0c-0.899994,0 -1.699982,0 -2.53598,0c-1.016693,0 -1.724792,-0.154572 -2.728027,0.010666c-0.867859,0.142944 -1.6521,0.782951 -2.343994,1.08667c-0.813538,0.357117 -1.664215,0.967072 -2.333649,1.465164c-0.357178,0.265747 -1.093109,0.822792 -2.136505,1.737335c-0.666168,0.583893 -0.991425,0.863846 -1.803009,1.742996c-0.709717,0.768814 -1.060822,1.26796 -1.518829,1.977997c-0.478516,0.741821 -1.03714,1.626617 -1.518829,2.298004c-0.537018,0.748489 -0.835083,1.141113 -1.469177,1.969162c-0.675018,0.88147 -1.395325,1.795486 -1.760162,2.264679c-0.367157,0.472137 -1.093109,1.420044 -1.441986,1.894653c-0.343109,0.466782 -1.272003,1.82782 -1.539185,2.266006c-0.508545,0.834045 -0.944977,1.642426 -1.367981,2.399994c-0.59671,1.068619 -0.995575,1.737244 -1.423523,2.365845c-0.424957,0.624222 -1.139526,1.526291 -1.660492,2.118164c-0.51651,0.586823 -1.322632,1.335052 -1.818665,2.069336c-0.516571,0.764679 -0.408691,1.663452 -0.536011,2.507996c-0.145294,0.963852 -0.688324,1.616852 -0.879974,2.593338c-0.141907,0.723007 -0.01181,1.526474 -0.52002,2.570663c-0.438416,0.900818 -0.969727,1.494339 -1.264008,2.065826c-0.51001,0.990417 -0.899994,1.795502 -1.299988,2.595505c-0.399994,0.800003 -0.711914,1.39415 -1.200012,2.402664c-0.307526,0.635406 -0.629456,1.358582 -0.998657,2.565338c-0.207367,0.67778 -0.38266,1.377731 -0.515991,2.063995c-0.231567,1.191864 -0.23288,2.164734 -0.506836,3.167999c-0.167847,0.6147 -0.607727,1.386765 -1.074005,2.40451c-0.285797,0.62384 -0.569366,1.558395 -0.647339,2.343658c-0.078247,0.787994 -0.057159,1.909164 -0.057159,2.702499c0,0.892334 0,1.891006 0,2.458328c0,1.190842 0,2.080338 0,2.933838c0,1.035828 0,1.731842 0,2.641174c0,1 0,1.815994 0,2.631989c0,1.006668 0,1.788177 0,2.422501c0,1.261505 0,1.789841 0,2.986511c0,0.648331 0,1.316666 0,1.994995c0,1.346664 0,2.613327 0,3.193832c0,1.052994 0,1.981995 0,2.407501c0,1.511993 0,2.192001 0,3.136993c0,0.580002 0,1.857666 0,2.541672c0,1.166672 0,1.952667 0,2.5c0,0.815994 0,2.042831 0,2.895493c0,1.003174 0,1.768509 0,2.720505c0,0.768005 0,1.709335 0,2.717331c0,0.792007 -0.004486,1.650681 0,2.514008c0.005341,1.027374 0.142456,1.829773 0.520844,2.673492c0.263824,0.588272 0.779205,1.579147 1.079163,2.179169c0.499908,0.999954 0.92337,1.784485 1.114655,2.400009c0.304688,0.980453 0.270996,1.817917 0.569336,2.79866c0.238251,0.783249 0.488495,1.769897 0.88266,2.601334c0.332275,0.700882 0.995209,1.510468 1.46933,2.174667c0.491425,0.688431 1.20932,1.186371 1.768524,1.578003c1.011597,0.708435 1.604004,1.242386 2.110168,1.848663c0.640015,0.766617 0.887939,1.463715 1.651978,2.231995c0.591766,0.595062 1.324768,0.994995 2.3125,1.145844c0.921356,0.140717 1.839355,0.249084 2.520844,0.520828c0.974579,0.388611 1.817261,0.554642 2.520844,1.020828c0.823639,0.545731 1.506012,0.936905 2.3125,1.479172c0.691528,0.464981 1.487854,1.101395 2.023987,1.421341c0.660706,0.394302 1.78653,1.119186 2.443512,1.579498c0.339874,0.238144 0.973267,0.775101 2.199158,1.499161c0.610626,0.360657 1.600006,0.5 2.5,0.5c0.799988,0 1.678284,0.00856 2.542999,0.221329c0.735077,0.180878 1.557343,0.476288 2.756836,0.657166c0.592438,0.08934 1.464142,0.116165 2.533508,0.121506c0.919983,0.004593 1.679993,0 2.666656,0c0.984009,0 1.674652,0 2.747345,0c0.919312,0 1.752655,0 2.585999,0c0.919312,0 1.832825,0 2.44931,0c1.05069,0 2.031677,0 2.759003,0c0.767334,0 1.958374,0.004196 2.753021,-0.001328c0.762695,-0.00531 1.863159,0.207336 2.719482,-0.220001c0.800446,-0.39946 1.231415,-1.278458 1.92868,-1.657166c0.659698,-0.358307 1.804504,-0.121506 2.723816,-0.121506l0.833344,0l0.978668,-0.000336l0.773987,-0.113998" fill="none" id="svg_18" stroke="#000000" stroke-width="5"/>
  <path d="m402.5,125.5c0,0.166664 0,1.041664 0,1.686668c0,0.998665 0,1.83416 0,2.714668c0,1.197327 0,1.787994 0,2.641495c0,1.035507 0,1.915497 0,2.936005c0,0.830994 0,1.790497 0,2.541992c0,0.796509 0,1.792511 0,2.632507c0,0.96666 0,1.770828 0,2.832504c0,0.738327 0,1.57666 0,2.474991c0,0.459167 0,1.817505 0,2.677505c0,0.819992 0,1.599991 0,2.694992c0,1.009506 0,1.645844 0,2.565338c0,1.199997 0,1.790665 0,2.644165c0,1.035828 0,1.957169 0,2.641174c0,1.001328 0,1.836823 0,2.717331c0,1.199997 0,1.809326 0,2.755829c0,1.009506 0,1.728165 0,2.478836c0,0.774658 0,1.565338 0,2.763824c0,0.79567 0,1.964172 0,2.714844c0,1.063995 0,1.732666 0,2.710663c0,0.658661 0,1.695663 0,2.778671c0,0.698669 0,1.895996 0,2.698669c0,0.863998 0,1.697327 0,2.675995c0,0.774002 0,1.682999 0,2.483002c0,0.959671 0,1.763657 0,2.585663c0,1.031174 0,1.931839 0,2.952667c0,0.821335 0,1.514328 0,2.642838c0,0.666992 0,1.377991 0,2.474503c0,1.060989 0,1.720993 0,2.635986c0,1.080002 0,2 0,2.76001c0,0.965836 0,1.897324 0,2.807999c0,0.853333 0,1.793335 0,2.678665c0,0.800003 0,1.699997 0,2.600006c0,0.920822 0,1.721329 0,2.574661c0,0.940002 0,1.925507 0,2.710663c0,0.940002 0,1.630676 0,2.740005c0,0.858658 0,1.722 0,2.621994c0,0.919342 0,1.75267 0,2.731506c0,0.830994 0,1.790497 0,2.541992c0,0.796509 0,1.792511 0,2.632507c0,0.961334 0,1.946671 0,2.846664c0,0.800003 0,1.671997 0,2.542664c0,0.957336 0,1.689331 0,2.647507c0,0.976501 0,1.80983 0,2.78833c0,0.82016 0,1.657501 0,2.674164c0,0.694672 0,1.722 0,2.668671c0,0.853333 0,1.793335 0,2.678665c0,0.757172 0,1.652664 0,2.516006c0,0.963165 0,1.883987 0,2.788498c0,0.862167 0,1.695496 0,2.673996c0,0.820175 -0.735474,2.456985 0,2.456985c0.66748,0 0.041382,-1.637756 -0.020844,-2.456314c-0.087585,-1.151764 -0.332581,-1.927124 -0.553833,-2.717834c-0.259583,-0.92775 -0.414886,-1.761139 -0.425323,-2.594666c-0.011475,-0.917267 0,-1.661331 0,-2.695999c0,-0.970673 0,-1.727844 0,-2.627838c0,-0.74733 0,-1.742828 0,-2.542831c0,-1.000168 0,-1.820831 0,-2.966675c0,-0.785995 0,-1.608002 0,-2.666656c0,-0.718506 0,-1.428009 0,-2.5c0,-0.981003 0,-1.708344 0,-2.475677c0,-1.190994 0,-1.989655 0,-2.780334c0,-0.774658 0,-1.52533 0,-2.926666c0,-0.658661 0,-1.309326 0,-2.650665c0,-0.717331 0,-1.458664 0,-2.207993c0,-0.741333 0,-2.138672 0,-2.778671c0,-0.884995 0,-1.925003 0,-2.804993c0,-1.020172 0,-1.840332 0,-2.713669c0,-0.870834 0,-1.848831 0,-2.64534c0,-0.998657 -0.003296,-1.682663 0,-2.849335c0.002258,-0.790512 0.012085,-1.646484 0.085327,-2.234665c0.149963,-1.204391 0.424774,-2.075287 0.562012,-2.641495c0.25,-1.031372 0.242188,-1.986206 0.686005,-2.957169c0.294464,-0.644241 0.894623,-1.167267 1.5,-2c0.561035,-0.771774 0.870056,-1.38414 1.082642,-2.398666c0.158539,-0.756668 0.305176,-2.033829 1.084015,-2.434662c0.726349,-0.37381 1.71228,-0.20137 2.399994,-0.59201c0.81543,-0.463196 1.700012,-0.574661 2.600006,-0.574661c0.799988,0 1.700012,0 2.600006,0c0.920837,0 1.884003,0 2.574646,0c1.068176,0 1.926361,0 2.641357,0c1.18399,0 2.090668,0 2.608978,0c1.116669,0 1.695007,0 2.273346,0c1.63501,0 2.55899,0 3.346985,0c0.676025,0 1.788025,0 2.493011,0c0.975006,0 1.940826,0 2.761658,0c0.900024,0 1.800842,0 2.480011,0c1.053345,0 1.842682,0 2.768005,0c0.493652,0 1.502991,-0.001144 2.951996,0c0.845337,0.000671 1.603241,-0.002167 2.303986,0.035995c0.678131,0.036926 2.084106,0.232834 2.82135,0.410675c0.753937,0.18187 1.508148,0.39949 2.553009,0.874664c0.672241,0.305725 1.278931,0.68045 2.134979,1.194672c1.000092,0.600754 1.66394,0.966873 2.285339,1.282654c0.998322,0.507324 1.603973,0.796112 2.601166,1.301346c0.781403,0.395905 1.611511,0.931152 2.279327,1.379166c0.699402,0.469193 1.67511,0.337555 2.520844,0.6875c0.784637,0.324661 1.705353,0.700668 1.989319,1.444c0.332428,0.870193 0.213776,1.93782 0.446686,2.639999c0.248993,0.750732 0.707214,1.580185 1.127991,2.327988c0.459686,0.816971 0.59613,1.756516 0.788666,2.426682c0.285034,0.992142 0.459625,1.871964 0.744659,2.717331c0.327911,0.972504 0.754517,1.614746 1.17868,2.389328c0.223907,0.408875 0.729645,1.205811 1.223999,2.388c0.378326,0.904724 0.483978,1.631607 0.5,2.61467c0.014404,0.885208 0,1.685333 0,2.642502c0,0.899994 0,1.647324 0,2.641495c0,0.765335 0,1.844162 0,2.701508c0,0.785156 0,1.735825 0,2.50116c0,1.00766 0,1.912994 0,2.731995c0,0.972 0,1.666672 0,2.361343c0,1.262161 0,2.022659 0,3.138657c0,0.756012 0,1.666672 0,2.566666c0,0.900009 0.163696,1.8573 -0.221344,2.700012c-0.305786,0.669296 -0.51001,1.553574 -0.820313,2.399994c-0.301453,0.822281 -1.476105,1.042419 -1.844025,1.800003c-0.396332,0.816086 -0.114319,1.800003 -0.114319,2.699997c0,0.800003 0,1.699997 0,2.600006c0,0.899994 0,1.799988 0,2.704498c0,1.01683 0,1.695496 0,2.673981c0,0.82019 0,1.721527 0,2.621521l0,0.899994" fill="none" id="svg_19" stroke="#000000" stroke-width="5"/>
  <path d="m478.5,259.5c-1.169342,0.886658 -1.746399,1.63266 -2.149323,2.246674c-0.579071,0.882446 -0.753754,1.708679 -0.865356,2.563995c-0.076904,0.589569 -0.257568,1.789673 -0.485321,2.647675c-0.205444,0.773865 -0.925629,2.251373 -0.147339,2.47998c0.74527,0.218903 0.467865,-1.586151 1.188995,-1.91748c0.856537,-0.393555 1.712433,0.146576 2.571686,-0.306183c0.700134,-0.368896 0.882172,-1.414673 0.886658,-2.350647l0,-0.848022l0,-0.863312l0,-1.016693" fill="none" id="svg_20" stroke="#000000" stroke-width="5"/>
  <a id="svg_22" xlink:href="http://">
   <path d="m493.5,269.5c0,-1.825348 0,-2.833344 0,-3.661346c0,-0.881653 -0.000061,-1.610657 0,-2.447662c0.000092,-1.191315 -0.013672,-1.800751 0.036011,-2.763c0.036133,-0.699463 0.174744,-1.872437 0.321167,-2.733337c0.152496,-0.896637 0.241852,-1.346588 0.444153,-2.226654c0.282471,-1.228836 0.489136,-1.956589 0.798676,-2.946671c0.194031,-0.62056 0.600006,-1.821335 0.799988,-2.421326c0.299988,-0.900009 0.609131,-1.797058 0.895508,-2.699997c0.189697,-0.598114 0.468475,-1.492813 0.619171,-2.698669c0.073486,-0.58815 0.083069,-1.444168 0.085327,-2.479996c0.001984,-0.921341 0,-1.605347 0,-2.608002c0,-0.855011 -0.00589,-1.800018 0.000336,-2.835007c0.004456,-0.740036 0.00943,-1.523453 0.113983,-2.339996c0.16803,-1.312546 0.449799,-2.22348 0.591003,-2.69101c0.286835,-0.949738 0.47113,-1.414276 0.726685,-2.363327c0.364136,-1.35228 0.465302,-2.217072 0.54715,-3.0215c0.075592,-0.743027 0.143707,-1.740417 0.373505,-2.543671c0.248138,-0.867355 0.618744,-1.760376 0.647339,-2.721497c0.022827,-0.76767 0,-1.570663 0,-2.380661c0,-0.990005 -0.001465,-2.159668 0.001343,-2.587341c0.00592,-0.901367 0.027374,-1.851028 0.055817,-2.338333c0.087158,-1.492477 0.224396,-2.491333 0.295502,-2.990997c0.142426,-1.000717 0.238251,-1.497833 0.363342,-2.5c0.186798,-1.496658 0.209991,-1.995499 0.247986,-2.968002c0.036072,-0.923645 0.028778,-1.776031 0.036163,-2.867661c0.005859,-0.86705 0.011169,-1.616821 0.221344,-2.585678c0.176422,-0.813187 0.471802,-1.630295 0.778503,-2.411987c0.375702,-0.957489 0.689301,-1.667114 0.833344,-2.5c0.169067,-0.97757 0.157837,-1.729797 0.21933,-2.532837c0.099701,-1.301682 0.155548,-1.75705 0.304504,-2.682007c0.150299,-0.933258 0.342407,-1.843109 0.444153,-2.282501c0.28476,-1.229599 0.602753,-2.293549 0.762665,-2.947998c0.296875,-1.214935 0.349762,-1.820206 0.436005,-2.7005c0.081879,-0.835709 0.275818,-1.837051 0.574677,-2.674164c0.295776,-0.82843 0.423065,-1.656479 0.425323,-2.617325c0.001801,-0.771011 -0.005127,-1.632019 0.000153,-2.52951c0.005341,-0.910538 0.029877,-1.860306 0.166504,-2.866501c0.097961,-0.721558 0.263947,-1.468338 0.40802,-2.243988c0.146698,-0.789703 0.311951,-1.988693 0.37265,-2.789337c0.060608,-0.799438 0.074677,-1.603317 0.21933,-2.800003c0.096863,-0.801407 0.260376,-1.58902 0.40802,-2.363998c0.142975,-0.750366 0.343445,-2.150482 0.399994,-2.800003c0.081085,-0.931244 0.175385,-1.8396 0.377991,-2.735992c0.13623,-0.602631 0.404022,-1.493927 0.563324,-2.700012c0.078949,-0.597656 0.089539,-1.507584 0.305359,-2.699661c0.10791,-0.596054 0.420227,-1.41243 0.657166,-2.557495c0.155121,-0.74968 0.117004,-1.626846 0.12149,-2.490173c0.005341,-1.027374 0.184601,-1.812714 0.5,-2.694336c0.229126,-0.640442 0.395416,-1.645416 0.520844,-2.458328c0.126495,-0.819702 0.527679,-1.826797 0.979156,-2.458328c0.639709,-0.894897 0.979126,-1.561859 1,-2.584503c0.014648,-0.718353 -0.011658,-1.509064 0.000183,-2.535675c0.010376,-0.900848 0.144653,-1.928757 0.352478,-2.516998c0.329224,-0.931931 0.601501,-1.779587 0.647644,-2.725998c0.034119,-0.699722 0.295776,-1.704208 0.850342,-2.467827c0.416992,-0.574158 1.092102,-1.45269 1.149353,-2.377335c0.04071,-0.65741 -0.473999,-1.861938 0.085327,-2.546669c0.485352,-0.594215 1.705505,-0.0532 2.414673,0.275833c0.760864,0.353012 1.558838,1.193512 1.838684,1.720169c0.456909,0.859932 0.817871,1.88858 1.14801,2.602661c0.349365,0.755676 0.753479,1.528946 0.974976,1.919167c0.685181,1.206993 1.218262,1.995659 1.490967,2.386497c0.539368,0.772995 1.07959,1.506989 1.880676,2.475677c0.472534,0.571396 0.943787,1.060501 1.562195,1.781494c0.821899,0.958237 1.214172,1.492401 1.562805,2.051834c0.498291,0.799622 0.934998,1.807785 1.020325,2.725327c0.087158,0.937546 -0.023193,1.726318 0.057373,2.513336c0.115417,1.127686 0.574036,1.823669 0.93866,2.661331c0.343323,0.788742 0.752563,1.395416 0.941345,2.370667c0.1474,0.761444 0.130554,1.638855 0.367981,2.830673c0.122192,0.613449 0.397644,1.55011 0.549316,2.565338c0.107056,0.716782 0.138794,1.480164 0.192017,2.279999c0.055908,0.840179 0.191467,2.175507 0.26001,2.638657c0.14093,0.952148 0.323547,1.925674 0.419189,2.419174c0.2901,1.496552 0.398865,1.994476 0.590942,2.986496c0.187195,0.966675 0.283386,1.434647 0.419189,2.338333c0.184021,1.22464 0.246704,1.951126 0.274658,2.91333c0.031677,1.090256 0.010559,1.804672 0.010681,2.710007c0.000183,0.968826 -0.036255,1.791443 0.114319,2.65184c0.158875,0.908081 0.594788,1.798187 0.885681,2.416321c0.298584,0.634506 0.785339,1.996078 0.885681,2.731842c0.10144,0.743973 0.109802,1.494629 0.114319,2.580658c0.004211,1.013992 0,1.666672 0,2.650665c0,1.03717 0,1.764175 0,2.495178c0,1.051498 0,1.977829 0,2.748825c0,0.869339 -0.000549,1.872009 0,2.671997c0.000671,1 -0.039368,1.816956 0.221313,2.800003c0.217163,0.818848 0.658081,1.793747 0.742676,2.58934c0.076782,0.722092 -0.107361,1.814697 0.046692,2.610657c0.182434,0.942703 1.137634,1.186737 1.822632,1.766678c0.662109,0.560593 1.021057,0.002518 1.08136,-0.593338c0.075989,-0.751099 0.078674,-1.626633 0.083984,-2.580002c0.005554,-0.993317 0.001343,-1.992004 0.001343,-2.488831c0,-0.983673 0,-1.947342 0,-2.419174c0,-1.363998 0,-2.232666 0,-3.085327c0,-0.852661 0,-2.166672 0,-2.621674c0,-0.939987 0,-1.919998 0,-2.424988c0,-1.040009 0,-2.12001 0,-3.238678c0,-0.571823 0,-1.150665 0,-2.325333c0,-0.593826 0,-2.389328 0,-2.989166c0,-0.598831 0,-1.78949 0,-2.379333c0,-0.584824 0,-1.735489 0,-2.854156c0,-1.081345 0,-1.609512 0,-2.645844c0,-0.510162 0,-1.519501 0,-2.520828c0,-0.996002 0,-1.968002 0,-2.4375c0,-0.891006 -0.018921,-2.398911 0.008972,-3c0.037354,-0.804108 0.309143,-1.901688 0.560364,-2.530502c0.275452,-0.689499 0.612976,-1.382843 1.263977,-2.698669c0.278687,-0.563324 0.723206,-1.261368 1,-2.333328c0.205261,-0.795059 0.144043,-1.685654 0.169373,-2.685333c0.021179,-0.836136 0.019531,-1.448395 0.440125,-2.614334c0.220154,-0.610336 0.714844,-1.44809 1.390503,-2.367004c0.393738,-0.535492 1.008179,-1.189987 1.462158,-1.985992c0.384766,-0.674652 0.619385,-1.761612 1.037842,-2.680664c0.319946,-0.702637 0.714172,-1.163528 1.098694,-1.984009c0.455078,-0.970978 0.505615,-1.837845 0.569336,-2.79866c0.051147,-0.770889 0.471985,-1.691071 0.714661,-2.400009c0.329895,-0.963669 0.213928,-1.975311 0.320007,-2.658661c0.14917,-0.960648 0.813354,-1.594841 0.959473,-2.582497c0.131104,-0.885902 -0.040222,-1.633087 0.429871,-2.606834c0.37561,-0.778099 0.574524,-1.007851 0.741333,0.030663c0.108948,0.678337 0.291992,1.490501 0.416626,1.9375c0.2724,0.976883 0.419556,1.5112 1.18103,3.117165c0.27124,0.572113 0.596069,1.135178 0.932983,1.70401c0.685425,1.157288 1.058533,1.722321 1.421326,2.290665c0.713684,1.117966 1.062012,1.660721 1.719666,2.717834c0.316101,0.508133 0.618713,1.004456 1.200012,1.947327c0.793213,1.286591 1.0448,1.673004 1.5,2.408997c0.4245,0.686249 0.841553,1.338837 1.294983,2.376511c0.308838,0.706757 0.540649,1.464294 0.720032,2.243988c0.180908,0.786163 0.332458,1.988419 0.393982,2.780334c0.088257,1.136261 0.063354,1.852875 0.33667,3.038345c0.170837,0.740875 0.513123,1.353104 0.658813,2.375168c0.120544,0.845734 0.05719,1.816986 0.05719,2.631485c0,0.868515 0,2.064011 0,2.664001c0,0.900009 0,2.100006 0,2.698669c0,0.880508 0,1.716003 0,2.718674c0,0.944 0,2.015991 0,2.653336c0,0.701324 0,1.450668 0,2.231995c0,1.197327 0,1.99733 0,2.797333c0,0.800003 0,2 0,2.800003c0,0.800003 0,1.599991 0,2.399994c0,1.199997 0,2 0,2.800003c0,0.800003 0,2 0,2.800003c0,0.800003 0,1.599991 0,2.399994c0,1.199829 0,1.995499 0,2.779175c0,1.135498 0,2.199493 0,2.868164c0,0.977997 -0.004761,1.636673 0.000183,2.674332c0.005371,1.125031 0.029053,1.9254 0.057007,2.339996c0.088135,1.306625 0.222717,2.221634 0.368164,3.153c0.072571,0.464828 0.246399,1.372177 0.407959,2.652008c0.095886,0.759628 0.152649,1.770676 0.16217,2.367157c0.020447,1.280685 -0.059265,1.96106 0.171204,2.966171c0.190186,0.829407 0.543457,1.444244 0.711792,2.421341c0.137268,0.796783 0.119263,1.625992 0.121521,2.657166c0.001953,0.900665 0,1.921494 0,2.732162c0,0.874664 0,1.875992 0,2.731003c0,0.619995 -0.009583,1.625076 0.004517,2.710999c0.009705,0.747452 0.014038,1.499252 0.16217,2.580658c0.094177,0.687805 0.355286,1.687195 0.537842,2.376511c0.297363,1.122986 0.498291,1.958862 0.695496,2.851501c0.10144,0.459167 0.295044,1.391571 0.599976,2.771988c0.098389,0.445358 0.295166,1.306198 0.5,2.125c0.195435,0.781158 0.49585,1.876236 0.795471,2.875504c0.181213,0.604416 0.466431,1.38443 0.679199,2.536835c0.140808,0.762848 0.246521,1.615021 0.377991,2.348999c0.147217,0.822021 0.318726,1.680695 0.480652,2.947006c0.097168,0.759613 0.145264,1.773102 0.21936,2.367157c0.130981,1.050217 0.485291,1.955322 0.66333,2.650177c0.253418,0.988892 0.272278,1.83667 0.282654,2.717331c0.01062,0.898773 0.001343,1.809326 0.001343,2.434662c0,1.330673 0,2.046661 0,2.778656c0,1.0755 0,2.052002 0,2.871002c0,0.905334 0,1.91568 0,2.535187c0,1.145813 0,1.931824 0,2.753815c0,1.058685 0,1.777161 0,2.486664c0,1.072021 0,2.053009 0,2.780334c0,0.767334 0,1.958344 0,2.757019c0,0.790649 0,1.565338 0,2.315979c0,1.398682 0,2.038666 0,2.923676l0,1.040009l0,0.880005" fill="none" id="svg_21" stroke="#000000" stroke-width="5"/>
  </a>
 </g>
</svg>